<svg width="64" height="64" viewBox="0 0 64 64" fill="none" xmlns="http://www.w3.org/2000/svg">
  <defs>
    <linearGradient id="ll-paper" x1="18" y1="20" x2="42" y2="46" gradientUnits="userSpaceOnUse">
      <stop stop-color="#f1ecff"/>
      <stop offset="1" stop-color="#b9a6f5"/>
    </linearGradient>
    <linearGradient id="ll-seal" x1="27" y1="26" x2="37" y2="38" gradientUnits="userSpaceOnUse">
      <stop stop-color="#c4b5fd"/>
      <stop offset="1" stop-color="#7c5cf0"/>
    </linearGradient>
    <radialGradient id="ll-glow" cx="0" cy="0" r="1" gradientUnits="userSpaceOnUse" gradientTransform="translate(20 46) scale(22)">
      <stop stop-color="#a78bfa" stop-opacity="0.5"/>
      <stop offset="1" stop-color="#a78bfa" stop-opacity="0"/>
    </radialGradient>
  </defs>

  <rect width="64" height="64" rx="14" fill="#0a0a0a"/>
  <rect x="0.75" y="0.75" width="62.5" height="62.5" rx="13.25" fill="none" stroke="#a78bfa" stroke-opacity="0.2"/>
  <circle cx="20" cy="46" r="22" fill="url(#ll-glow)"/>

  <rect x="13.5" y="20.5" width="37" height="23" rx="3.5" fill="url(#ll-paper)" stroke="#7c5cf0" stroke-opacity="0.55"/>
  <g stroke="#6f4fe0" stroke-opacity="0.8" stroke-width="1.4" stroke-linecap="round">
    <path d="M15.5 22 L32 32"/>
    <path d="M48.5 22 L32 32"/>
    <path d="M15.5 42 L32 32"/>
    <path d="M48.5 42 L32 32"/>
  </g>

  <circle cx="32" cy="32" r="6.7" fill="url(#ll-seal)" stroke="#5b3fc4" stroke-width="0.8"/>
  <circle cx="32" cy="31" r="2.9" fill="#f1ecff"/>
  <rect x="30.5" y="33.1" width="3" height="1.9" rx="0.6" fill="#f1ecff"/>
  <circle cx="30.9" cy="30.9" r="0.85" fill="#34255c"/>
  <circle cx="33.1" cy="30.9" r="0.85" fill="#34255c"/>
</svg>
